<svg xmlns="http://www.w3.org/2000/svg" width="30" height="30" viewBox="0 0 30 30">
  <g id="icon-Help" transform="translate(-9 -26)">
    <rect id="icon_container" data-name="icon container" width="30" height="30" transform="translate(9 26)" fill="none"/>
    <g id="icn_help" data-name="icn help" transform="translate(15 32)">
      <path id="Path_149" data-name="Path 149" d="M9,0A9,9,0,1,1,0,9,9,9,0,0,1,9,0Z" fill="none" stroke="#141e28" stroke-width="1"/>
      <g id="Group_243" data-name="Group 243" transform="translate(6.025 4.557)">
        <path id="Path_150" data-name="Path 150" d="M.77-7.3H1.844a2.99,2.99,0,0,1,.1-.8,1.7,1.7,0,0,1,.322-.637,1.608,1.608,0,0,1,.55-.429A1.782,1.782,0,0,1,3.6-9.316a1.5,1.5,0,0,1,1.081.38,1.556,1.556,0,0,1,.449,1.053,1.683,1.683,0,0,1-.114.771,2.193,2.193,0,0,1-.373.582,5.762,5.762,0,0,1-.506.5,5.607,5.607,0,0,0-.518.52,2.758,2.758,0,0,0-.417.643,2.308,2.308,0,0,0-.2.876v.576H4.082v-.478a1.6,1.6,0,0,1,.095-.569,1.928,1.928,0,0,1,.253-.465,3.236,3.236,0,0,1,.354-.4q.2-.19.4-.373t.4-.4a2.845,2.845,0,0,0,.348-.453,2.408,2.408,0,0,0,.247-.545,2.253,2.253,0,0,0,.095-.68,2.6,2.6,0,0,0-.2-1.041,2.136,2.136,0,0,0-.55-.765,2.441,2.441,0,0,0-.841-.478A3.345,3.345,0,0,0,3.6-10.234a3.072,3.072,0,0,0-1.188.22,2.51,2.51,0,0,0-.9.618,2.755,2.755,0,0,0-.563.937A3.187,3.187,0,0,0,.77-7.3Z" transform="translate(-0.769 10.234)" fill="#141e28"/>
        <circle id="Ellipse_80" data-name="Ellipse 80" cx="0.75" cy="0.75" r="0.75" transform="translate(2.098 7.596)" fill="#141e28"/>
      </g>
    </g>
  </g>
</svg>
